<svg width="251" height="41" viewBox="0 0 251 41" fill="none" xmlns="http://www.w3.org/2000/svg">
<path d="M22.6024 28.4052C22.6024 30.3187 22.2614 31.9675 21.5794 33.3517C20.9285 34.6953 19.8435 35.937 18.3245 37.0769C17.3016 37.8912 16.1081 38.5019 14.7441 38.909C13.3802 39.3161 12.0007 39.5197 10.6057 39.5197C9.17977 39.5197 7.41282 38.909 5.30487 37.6876C3.78591 36.7105 2.57694 35.5502 1.67797 34.2067C0.809988 32.8632 0.375999 31.3976 0.375999 29.8098C0.375999 28.7105 0.561995 27.9166 0.933985 27.4281C1.30598 26.8988 1.91046 26.6342 2.74744 26.6342C3.18143 26.6342 3.63091 26.8785 4.0959 27.367C4.56089 27.8149 4.83988 28.2627 4.93288 28.7105C5.36687 30.3797 6.12635 31.6622 7.21132 32.5579C8.29629 33.4128 9.64476 33.8403 11.2567 33.8403C13.1167 33.8403 14.6666 33.3925 15.9066 32.4968C17.1776 31.6011 17.813 30.4001 17.813 28.8937C17.813 27.4281 17.1311 26.1253 15.7671 24.9853C14.4031 23.8454 13.0082 23.0515 11.5822 22.6037C9.53626 21.8708 7.72281 20.9955 6.14185 19.9777C4.49889 18.9192 3.27442 17.6164 2.46845 16.0693C1.66247 14.5222 1.25948 12.8937 1.25948 11.1838C1.25948 9.59602 1.67797 7.98788 2.51494 6.35938C3.35192 4.69017 4.3439 3.48916 5.49087 2.75633C6.11085 2.34921 7.16482 1.92173 8.65278 1.47389C10.1717 0.985338 11.2722 0.741064 11.9542 0.741064C12.8532 0.741064 13.8451 0.883557 14.9301 1.16854C16.0151 1.45353 16.8986 1.86066 17.5806 2.38992C18.9445 3.40773 19.952 4.32376 20.603 5.13801C21.254 5.95226 21.5794 6.97007 21.5794 8.19144C21.5794 8.92427 21.3625 9.57567 20.9285 10.1456C20.5255 10.7156 19.8125 11.0006 18.7895 11.0006C18.5415 11.0006 18.2935 10.8581 18.0455 10.5731C17.7975 10.2881 17.4876 9.86066 17.1156 9.29068C16.6196 8.43572 16.1391 7.86574 15.6741 7.58076C15.2091 7.3772 14.5271 7.15328 13.6282 6.909C12.7602 6.66473 11.9852 6.54259 11.3032 6.54259C10.5592 6.54259 9.78425 6.74615 8.97828 7.15328C8.1723 7.5604 7.49031 8.15073 6.93233 8.92427C6.40534 9.65709 6.14185 10.5121 6.14185 11.4892C6.14185 12.3034 6.42084 13.0159 6.97883 13.6266C7.56781 14.1965 8.26529 14.6647 9.07127 15.0311C10.0012 15.5197 11.0087 15.9472 12.0937 16.3136C13.5197 16.8836 14.6821 17.4128 15.5811 17.9014C16.5111 18.3492 17.4101 18.9192 18.278 19.6113C19.797 20.792 20.8975 22.0133 21.5794 23.2754C22.2614 24.4968 22.6024 26.2067 22.6024 28.4052Z" fill="white"/>
<path d="M48.3406 17.596C48.3096 16.9446 48.2941 15.9675 48.2941 14.6647V12.3441C48.2941 10.797 48.2631 9.63674 48.2011 8.8632C48.1391 8.2118 48.1081 6.52223 48.1081 3.7945C48.1081 2.8174 48.3251 2.06422 48.7591 1.53495C49.2241 0.96498 49.8441 0.679993 50.619 0.679993C51.611 0.679993 52.2775 0.96498 52.6185 1.53495C52.9595 2.10493 53.13 3.04132 53.13 4.34411V6.66473L53.0835 13.3823C53.0525 14.6851 53.037 16.6393 53.037 19.2449L53.0835 24.2525C53.1145 25.026 53.13 26.1049 53.13 27.4892C53.13 28.5884 53.161 30.1558 53.223 32.1914C53.285 34.0642 53.316 35.4688 53.316 36.4052C53.316 37.1787 53.1455 37.8912 52.8045 38.5426C52.4945 39.194 52.0605 39.5197 51.5025 39.5197C49.3326 39.5197 48.2476 38.5629 48.2476 36.6495C48.2476 35.5909 48.2786 34.4103 48.3406 33.1075C48.4026 32.1711 48.4336 30.7462 48.4336 28.8327C48.4336 27.4892 48.4026 25.5553 48.3406 23.0311C46.8836 23.194 44.3727 23.2754 40.8078 23.2754C38.5758 23.2754 36.8399 23.2754 35.5999 23.2754C34.36 23.2347 33.461 23.1329 32.903 22.9701L32.8565 29.993C32.8565 30.4408 32.934 31.6418 33.089 33.596C33.244 34.8988 33.3215 36.0388 33.3215 37.0159C33.3215 37.6266 33.0425 38.2169 32.4845 38.7869C31.9575 39.3161 31.4615 39.5808 30.9965 39.5808C29.8806 39.5808 29.1211 39.2347 28.7181 38.5426C28.3151 37.8098 28.1136 36.7105 28.1136 35.2449L28.0671 30.4205C28.0361 29.8505 28.0206 29.0566 28.0206 28.0388C28.0206 26.5324 27.9896 24.4764 27.9276 21.8708C27.8656 19.5095 27.8346 17.7996 27.8346 16.7411C27.8346 15.1533 27.8656 12.9344 27.9276 10.0846C27.9896 7.39755 28.0206 5.40264 28.0206 4.09984C28.0206 2.79704 28.2686 1.92173 28.7646 1.47389C29.2606 1.02605 29.8186 0.802132 30.4386 0.802132C32.1745 0.802132 33.0425 1.55531 33.0425 3.06167C33.0425 5.7487 32.996 8.31358 32.903 10.7563C32.841 13.8505 32.81 16.11 32.81 17.535C33.709 17.8199 34.6544 18.0031 35.6464 18.0846C36.6384 18.166 38.0334 18.2067 39.8313 18.2067C43.4892 18.2067 46.3256 18.0031 48.3406 17.596Z" fill="white"/>
<path d="M67.5159 5.74869C67.4229 8.35429 67.3764 10.8581 67.3764 13.2601C67.3764 15.7436 67.5004 19.3874 67.7484 24.1914C67.7794 24.9243 67.8414 26.4103 67.9344 28.6495C68.0274 30.8479 68.0739 32.8632 68.0739 34.6953C68.3839 34.6545 68.7094 34.5935 69.0504 34.5121C69.4223 34.4306 69.7013 34.3899 69.8873 34.3899C70.5693 34.3899 71.1118 34.6138 71.5148 35.0617C71.9178 35.5095 72.1193 36.2016 72.1193 37.138C72.1193 37.7487 71.9333 38.2169 71.5613 38.5426C71.1893 38.8683 70.5383 39.1126 69.6083 39.2754C68.7094 39.3975 67.3919 39.4586 65.6559 39.4586C63.734 39.4586 62.2925 39.3772 61.3316 39.2143C60.3706 39.0515 59.7041 38.7462 59.3321 38.2983C58.9601 37.8098 58.7741 37.0973 58.7741 36.1609C58.7741 35.4688 58.9446 35.0006 59.2856 34.7563C59.6266 34.5121 60.1071 34.3899 60.7271 34.3899L61.7035 34.451L63.238 34.5731L63.0055 27.367C62.8195 23.4586 62.7265 19.8759 62.7265 16.6189C62.7265 14.8683 62.773 12.4663 62.866 9.41282L62.959 6.05404C61.905 6.13546 61.0836 6.17618 60.4946 6.17618C59.8126 6.17618 59.3476 6.01333 59.0996 5.68763C58.8826 5.36193 58.7741 4.69017 58.7741 3.67236C58.7741 2.53241 59.3631 1.79959 60.5411 1.47389C61.75 1.14819 63.579 0.985336 66.0279 0.985336C67.9189 0.985336 69.3293 1.06676 70.2593 1.22961C71.2203 1.39246 71.7008 1.75887 71.7008 2.32885C71.7008 3.71307 71.4683 4.6291 71.0033 5.07694C70.5693 5.48406 69.7168 5.68763 68.4459 5.68763L67.5159 5.74869Z" fill="white"/>
<path d="M89.4655 25.6571C88.2875 25.6571 87.2801 25.6164 86.4431 25.535C85.6371 25.4128 84.5676 25.2296 83.2347 24.9853C83.2347 26.736 83.2037 28.8734 83.1417 31.3975L83.0952 36.0998C83.0952 37.1584 82.8782 37.993 82.4442 38.6037C82.0102 39.1736 81.4987 39.4586 80.9097 39.4586C79.8867 39.4586 79.1273 39.2958 78.6313 38.9701C78.1663 38.6037 77.9338 37.9726 77.9338 37.0769C77.9338 35.4892 77.9958 33.8199 78.1198 32.0693C78.4918 27.8352 78.6778 23.0719 78.6778 17.7792C78.6778 14.0744 78.6003 10.5935 78.4453 7.33648C77.9183 7.05149 77.4533 6.68508 77.0503 6.23725C76.6783 5.78941 76.4768 5.34157 76.4458 4.89373C76.4458 3.83521 76.7403 2.98025 77.3293 2.32885C77.9183 1.67745 78.8173 1.35175 80.0262 1.35175C81.0182 1.35175 82.2427 1.24997 83.6996 1.04641C84.0406 1.00569 84.6296 0.944624 85.4666 0.8632C86.3036 0.781776 87.0321 0.741064 87.652 0.741064C90.194 0.741064 92.1624 1.06676 93.5574 1.71816C94.9834 2.36956 96.4093 3.44844 97.8353 4.9548C99.3852 8.13038 100.16 10.3696 100.16 11.6724C100.16 15.8657 99.2147 19.2449 97.3238 21.8098C95.4638 24.3747 92.8444 25.6571 89.4655 25.6571ZM88.4425 5.9319C87.4505 5.9319 86.5671 6.01333 85.7921 6.17618C85.0481 6.29831 84.1801 6.52223 83.1882 6.84793C83.3432 9.98279 83.4207 12.7105 83.4207 15.0311C83.4207 16.7818 83.3742 18.2474 83.2812 19.4281C84.6141 19.7945 85.6526 20.0388 86.3966 20.1609C87.1716 20.2423 88.0395 20.283 89.0005 20.283C91.2944 20.283 92.9064 19.5095 93.8364 17.9624C94.7974 16.4154 95.2778 14.5833 95.2778 12.4663C95.2778 11.8556 95.1383 11.1024 94.8594 10.2067C94.6114 9.31104 94.3789 8.72071 94.1619 8.43572C93.3249 7.45862 92.5034 6.80722 91.6974 6.48152C90.8915 6.11511 89.8065 5.9319 88.4425 5.9319Z" fill="white"/>
<path d="M135.898 28.4052C135.898 30.3187 135.557 31.9675 134.875 33.3517C134.224 34.6953 133.139 35.937 131.62 37.0769C130.597 37.8912 129.403 38.5019 128.04 38.909C126.676 39.3161 125.296 39.5197 123.901 39.5197C122.475 39.5197 120.708 38.909 118.6 37.6876C117.081 36.7105 115.872 35.5502 114.973 34.2067C114.105 32.8632 113.671 31.3976 113.671 29.8098C113.671 28.7105 113.857 27.9166 114.229 27.4281C114.601 26.8988 115.206 26.6342 116.043 26.6342C116.477 26.6342 116.926 26.8785 117.391 27.367C117.856 27.8149 118.135 28.2627 118.228 28.7105C118.662 30.3797 119.422 31.6622 120.507 32.5579C121.592 33.4128 122.94 33.8403 124.552 33.8403C126.412 33.8403 127.962 33.3925 129.202 32.4968C130.473 31.6011 131.108 30.4001 131.108 28.8937C131.108 27.4281 130.426 26.1253 129.062 24.9853C127.699 23.8454 126.304 23.0515 124.878 22.6037C122.832 21.8708 121.018 20.9955 119.437 19.9777C117.794 18.9192 116.57 17.6164 115.764 16.0693C114.958 14.5222 114.555 12.8937 114.555 11.1838C114.555 9.59602 114.973 7.98788 115.81 6.35938C116.647 4.69017 117.639 3.48916 118.786 2.75633C119.406 2.34921 120.46 1.92173 121.948 1.47389C123.467 0.985338 124.568 0.741064 125.25 0.741064C126.149 0.741064 127.141 0.883557 128.226 1.16854C129.31 1.45353 130.194 1.86066 130.876 2.38992C132.24 3.40773 133.247 4.32376 133.898 5.13801C134.549 5.95226 134.875 6.97007 134.875 8.19144C134.875 8.92427 134.658 9.57567 134.224 10.1456C133.821 10.7156 133.108 11.0006 132.085 11.0006C131.837 11.0006 131.589 10.8581 131.341 10.5731C131.093 10.2881 130.783 9.86066 130.411 9.29068C129.915 8.43572 129.434 7.86574 128.969 7.58076C128.504 7.3772 127.823 7.15328 126.924 6.909C126.056 6.66473 125.281 6.54259 124.599 6.54259C123.855 6.54259 123.08 6.74615 122.274 7.15328C121.468 7.5604 120.786 8.15073 120.228 8.92427C119.701 9.65709 119.437 10.5121 119.437 11.4892C119.437 12.3034 119.716 13.0159 120.274 13.6266C120.863 14.1965 121.561 14.6647 122.367 15.0311C123.297 15.5197 124.304 15.9472 125.389 16.3136C126.815 16.8836 127.978 17.4128 128.876 17.9014C129.806 18.3492 130.705 18.9192 131.573 19.6113C133.092 20.792 134.193 22.0133 134.875 23.2754C135.557 24.4968 135.898 26.2067 135.898 28.4052Z" fill="white"/>
<path d="M138.294 3.85557C138.294 2.10493 139.27 1.22961 141.223 1.22961C142.06 1.22961 143.656 1.27032 146.012 1.35175C148.616 1.5146 150.585 1.59603 151.918 1.59603C153.003 1.59603 154.32 1.5146 155.87 1.35175C156.924 1.27032 157.591 1.22961 157.87 1.22961C159.575 1.31104 161.016 1.71816 162.194 2.45099C162.535 2.65455 162.814 2.89882 163.031 3.18381C163.248 3.4688 163.356 3.93699 163.356 4.58839C163.356 5.48406 163.139 6.2576 162.705 6.909C162.271 7.51969 161.744 7.82503 161.124 7.82503C160.443 7.82503 159.451 7.70289 158.149 7.45862C157.002 7.17363 155.994 7.03114 155.126 7.03114C154.289 7.03114 153.654 7.0515 153.22 7.09221C153.127 8.43572 153.08 11.652 153.08 16.7411C153.08 22.8072 153.22 28.9548 153.499 35.1838L153.592 36.9548C153.592 38.624 152.863 39.4586 151.406 39.4586C150.259 39.4586 149.484 39.1126 149.081 38.4205C148.678 37.6876 148.477 36.5884 148.477 35.1227C148.477 32.2322 148.415 28.6291 148.291 24.3136C148.167 20.7309 148.105 18.1864 148.105 16.68C148.105 15.6622 148.198 12.5477 148.384 7.33648L142.943 7.39755C141.208 7.39755 139.999 7.19399 139.317 6.78686C138.635 6.33903 138.294 5.36193 138.294 3.85557Z" fill="white"/>
<path d="M181.33 39.5197C179.284 39.5197 177.409 39.194 175.704 38.5426C173.999 37.8505 172.604 36.853 171.519 35.5502C169.535 33.2296 168.14 30.7054 167.334 27.9777C166.559 25.2093 166.172 21.6876 166.172 17.4128C166.172 16.5171 166.265 15.6825 166.451 14.909C166.668 14.0948 166.947 13.1991 167.288 12.222C167.381 11.937 167.52 11.4892 167.706 10.8785C167.923 10.2271 168.063 9.63674 168.125 9.10748C168.714 7.68254 169.706 6.31867 171.101 5.01587C172.527 3.71307 174.061 2.67491 175.704 1.90137C177.347 1.08712 178.788 0.679993 180.028 0.679993C186.011 0.679993 190.289 3.36702 192.862 8.74106C194.319 11.8759 195.048 15.0311 195.048 18.2067C195.048 22.3187 194.474 25.9217 193.327 29.0159C192.211 32.11 190.661 34.5121 188.677 36.222C187.437 37.1991 186.166 37.993 184.864 38.6037C183.562 39.2143 182.384 39.5197 181.33 39.5197ZM171.008 21.9319C170.977 24.1711 171.333 26.0235 172.077 27.4892C172.852 28.9141 174.061 30.4815 175.704 32.1914C176.944 32.8021 177.812 33.2093 178.308 33.4128C178.804 33.6164 179.346 33.7182 179.935 33.7182C181.95 33.7182 183.733 33.1685 185.283 32.0693C186.833 30.9701 188.026 29.4637 188.863 27.5502C189.731 25.6367 190.165 23.4993 190.165 21.138C190.165 18.0439 189.902 15.6011 189.375 13.8098C188.848 12.0184 187.902 10.4103 186.538 8.98534C185.825 8.2118 184.911 7.64183 183.795 7.27541C182.71 6.909 181.547 6.7258 180.307 6.7258C177.331 6.7258 175.022 8.11002 173.379 10.8785C171.767 13.6062 170.977 17.2907 171.008 21.9319Z" fill="white"/>
<path d="M216.376 23.2754C219.073 29.3009 221.599 34.0846 223.955 37.6266C224.203 37.9523 224.327 38.3187 224.327 38.7258C224.327 39.2551 224.079 39.7029 223.583 40.0693C223.087 40.4764 222.513 40.68 221.862 40.68C220.901 40.68 219.863 40.1507 218.747 39.0922C217.941 38.3594 217.197 37.2805 216.515 35.8556C215.833 34.3899 215.058 32.5171 214.19 30.2372L213.4 28.1609C212.594 26.2474 212.113 25.1278 211.958 24.8021C211.276 25.1685 210.486 25.4332 209.587 25.596C208.688 25.7589 207.587 25.9014 206.285 26.0235C206.347 31.2347 206.378 34.8785 206.378 36.9548C206.378 37.7283 206.161 38.3594 205.727 38.8479C205.293 39.2958 204.751 39.5197 204.1 39.5197C203.294 39.5197 202.674 39.0922 202.24 38.2372C201.806 37.0973 201.589 35.3263 201.589 32.9243L201.635 28.4663C201.635 25.6978 201.682 23.0719 201.775 20.5884C201.837 17.3314 201.868 14.9294 201.868 13.3823L201.914 10.2678C201.914 9.33139 201.868 8.37465 201.775 7.39755C201.279 7.19399 200.845 6.88865 200.473 6.48152C200.101 6.03368 199.915 5.54514 199.915 5.01587C199.915 3.99806 200.194 3.22452 200.752 2.69526C201.341 2.12528 202.069 1.75887 202.937 1.59603C205.448 1.06676 207.897 0.802132 210.284 0.802132C214.345 0.802132 217.709 1.79959 220.374 3.7945C223.04 5.78941 224.373 8.82249 224.373 12.8937C224.373 14.1558 224.156 15.3772 223.722 16.5579C223.319 17.6978 222.761 18.6545 222.048 19.4281C220.188 21.3416 218.298 22.624 216.376 23.2754ZM219.445 12.7105C219.445 10.7563 218.654 9.16854 217.073 7.94717C215.523 6.68508 213.291 6.05404 210.377 6.05404C209.106 6.05404 207.804 6.2576 206.471 6.66473C206.533 8.13038 206.564 9.16854 206.564 9.77923C206.564 11.0006 206.502 12.7512 206.378 15.0311C206.316 17.311 206.285 19.1431 206.285 20.5273C208.362 20.5273 210.346 20.1609 212.237 19.4281C213.601 18.8988 214.748 18.3899 215.678 17.9014C216.608 17.4128 217.461 16.7411 218.236 15.8861C219.042 14.9904 219.445 13.9319 219.445 12.7105Z" fill="white"/>
<path d="M248.609 31.7029C249.198 31.7029 249.632 32.0082 249.911 32.6189C250.221 33.1889 250.376 33.8199 250.376 34.5121C250.376 35.367 250.268 35.9777 250.051 36.3441C249.865 36.6698 249.477 37.0159 248.888 37.3823C247.648 38.1558 246.253 38.7054 244.703 39.0311C243.184 39.3568 241.278 39.5197 238.984 39.5197C236.225 39.5197 234.101 38.909 232.613 37.6876C231.157 36.4255 230.196 34.8581 229.731 32.9853C229.266 31.1126 229.033 28.9344 229.033 26.451V22.6037C229.033 19.9573 229.08 17.4128 229.173 14.9701C229.297 12.5273 229.529 9.67745 229.87 6.42045C230.087 4.46625 230.676 3.06167 231.637 2.20671C232.598 1.31104 233.652 0.8632 234.799 0.8632C236.039 0.8632 237.744 0.822488 239.914 0.741064L243.959 0.679993C245.602 0.679993 246.811 0.741062 247.586 0.8632C248.516 1.10747 249.198 1.39246 249.632 1.71816C250.097 2.00315 250.33 2.51206 250.33 3.24488C250.33 4.05913 250.113 4.85302 249.679 5.62656C249.276 6.4001 248.656 6.78686 247.819 6.78686C246.858 6.78686 245.478 6.70544 243.68 6.54259C241.882 6.37974 240.534 6.29831 239.635 6.29831C238.519 6.29831 237.62 6.35938 236.938 6.48152C236.07 6.56294 235.45 6.70544 235.078 6.909C234.706 7.11256 234.489 7.45862 234.427 7.94717C233.993 12.1406 233.776 15.2347 233.776 17.2296C234.458 17.3517 235.186 17.4128 235.961 17.4128C236.953 17.4128 238.612 17.2703 240.937 16.9853C242.642 16.7818 244.052 16.68 245.168 16.68C245.881 16.68 246.408 16.8428 246.749 17.1685C247.09 17.4942 247.261 17.9421 247.261 18.5121C247.261 19.4077 247.09 20.0998 246.749 20.5884C246.408 21.0769 245.788 21.4434 244.889 21.6876C243.804 21.9726 242.394 22.1965 240.658 22.3594C238.953 22.5222 237.325 22.6037 235.775 22.6037C235.186 22.6037 234.458 22.5629 233.59 22.4815C233.59 25.1685 233.683 27.2856 233.869 28.8327C234.086 30.3797 234.52 31.5808 235.171 32.4357C235.853 33.2907 236.876 33.7182 238.24 33.7182C241.309 33.7182 243.758 33.3518 245.587 32.6189C246.889 32.0082 247.896 31.7029 248.609 31.7029Z" fill="white"/>
</svg>
